<svg xmlns="http://www.w3.org/2000/svg" xmlns:xlink="http://www.w3.org/1999/xlink" width="500" zoomAndPan="magnify" viewBox="0 0 375 374.999991" height="500" preserveAspectRatio="xMidYMid meet" version="1.0"><defs><g/></defs><g fill="#809432" fill-opacity="1"><g transform="translate(7.895512, 195.749987)"><g><path d="M 35.0625 -29.96875 C 36.289062 -29.96875 36.90625 -29.578125 36.90625 -28.796875 C 36.90625 -28.585938 36.890625 -28.4375 36.859375 -28.34375 C 36.765625 -28.050781 36.628906 -27.820312 36.453125 -27.65625 C 36.273438 -27.488281 36.019531 -27.300781 35.6875 -27.09375 C 35.238281 -26.820312 34.863281 -26.519531 34.5625 -26.1875 C 34.257812 -25.851562 34.003906 -25.34375 33.796875 -24.65625 L 28.21875 -4.6875 C 27.707031 -2.882812 27.066406 -1.617188 26.296875 -0.890625 C 25.535156 -0.171875 24.476562 0.1875 23.125 0.1875 C 21.925781 0.1875 20.925781 -0.164062 20.125 -0.875 C 19.332031 -1.582031 18.59375 -2.671875 17.90625 -4.140625 L 11.109375 -18.453125 L 7.328125 -5.3125 C 7.242188 -4.914062 7.203125 -4.570312 7.203125 -4.28125 C 7.203125 -3.882812 7.269531 -3.554688 7.40625 -3.296875 C 7.539062 -3.046875 7.726562 -2.785156 7.96875 -2.515625 C 8.289062 -2.128906 8.453125 -1.800781 8.453125 -1.53125 C 8.453125 -1.351562 8.441406 -1.21875 8.421875 -1.125 C 8.296875 -0.707031 8.019531 -0.414062 7.59375 -0.25 C 7.175781 -0.0820312 6.550781 0 5.71875 0 L 0.8125 0 C -0.414062 0 -1.03125 -0.390625 -1.03125 -1.171875 C -1.03125 -1.378906 -1.015625 -1.53125 -0.984375 -1.625 C -0.898438 -1.914062 -0.765625 -2.144531 -0.578125 -2.3125 C -0.398438 -2.476562 -0.144531 -2.664062 0.1875 -2.875 C 0.632812 -3.144531 1.003906 -3.445312 1.296875 -3.78125 C 1.597656 -4.113281 1.851562 -4.625 2.0625 -5.3125 L 7.78125 -25.515625 L 7.0625 -27 C 6.757812 -27.601562 6.609375 -28.128906 6.609375 -28.578125 C 6.609375 -29.503906 7.210938 -29.96875 8.421875 -29.96875 L 15.078125 -29.96875 C 16.035156 -29.96875 16.757812 -29.75 17.25 -29.3125 C 17.75 -28.882812 18.285156 -28.113281 18.859375 -27 L 25.421875 -13.8125 L 28.53125 -24.65625 C 28.625 -25.082031 28.671875 -25.425781 28.671875 -25.6875 C 28.671875 -26.082031 28.601562 -26.40625 28.46875 -26.65625 C 28.332031 -26.914062 28.144531 -27.179688 27.90625 -27.453125 C 27.570312 -27.835938 27.40625 -28.164062 27.40625 -28.4375 C 27.40625 -28.613281 27.421875 -28.75 27.453125 -28.84375 C 27.566406 -29.257812 27.832031 -29.550781 28.25 -29.71875 C 28.675781 -29.882812 29.3125 -29.96875 30.15625 -29.96875 Z M 35.0625 -29.96875 "/></g></g></g><g fill="#809432" fill-opacity="1"><g transform="translate(40.610577, 195.749987)"><g><path d="M 27.5 -23.890625 C 28.0625 -25.960938 28.859375 -27.523438 29.890625 -28.578125 C 30.929688 -29.628906 32.367188 -30.15625 34.203125 -30.15625 C 35.640625 -30.15625 36.789062 -29.695312 37.65625 -28.78125 C 38.53125 -27.863281 38.96875 -26.726562 38.96875 -25.375 C 38.96875 -24.925781 38.894531 -24.40625 38.75 -23.8125 C 38.414062 -22.488281 37.828125 -21.53125 36.984375 -20.9375 C 36.148438 -20.351562 35.238281 -20.0625 34.25 -20.0625 C 33.738281 -20.0625 33.28125 -20.097656 32.875 -20.171875 C 32.46875 -20.253906 32.082031 -20.351562 31.71875 -20.46875 L 29.0625 -10.703125 C 28.101562 -7.140625 26.5 -4.421875 24.25 -2.546875 C 22 -0.671875 18.941406 0.265625 15.078125 0.265625 C 11.535156 0.265625 8.78125 -0.40625 6.8125 -1.75 C 4.851562 -3.101562 3.875 -5.207031 3.875 -8.0625 C 3.875 -9.4375 4.113281 -10.945312 4.59375 -12.59375 L 8.015625 -24.703125 C 8.128906 -25.097656 8.1875 -25.472656 8.1875 -25.828125 C 8.1875 -26.191406 8.132812 -26.484375 8.03125 -26.703125 C 7.925781 -26.929688 7.785156 -27.195312 7.609375 -27.5 C 7.335938 -27.882812 7.203125 -28.195312 7.203125 -28.4375 C 7.203125 -28.5625 7.234375 -28.710938 7.296875 -28.890625 C 7.410156 -29.273438 7.675781 -29.550781 8.09375 -29.71875 C 8.519531 -29.882812 9.132812 -29.96875 9.9375 -29.96875 L 20.515625 -29.96875 C 21.804688 -29.96875 22.453125 -29.578125 22.453125 -28.796875 C 22.453125 -28.617188 22.4375 -28.46875 22.40625 -28.34375 C 22.320312 -28.070312 22.195312 -27.851562 22.03125 -27.6875 C 21.863281 -27.53125 21.613281 -27.347656 21.28125 -27.140625 C 20.800781 -26.867188 20.410156 -26.566406 20.109375 -26.234375 C 19.816406 -25.898438 19.5625 -25.390625 19.34375 -24.703125 L 15.4375 -10.9375 C 15.164062 -9.914062 15.03125 -9.046875 15.03125 -8.328125 C 15.03125 -6.316406 16.109375 -5.3125 18.265625 -5.3125 C 19.585938 -5.3125 20.691406 -5.738281 21.578125 -6.59375 C 22.460938 -7.445312 23.207031 -8.910156 23.8125 -10.984375 Z M 27.5 -23.890625 "/></g></g></g><g fill="#809432" fill-opacity="1"><g transform="translate(76.070651, 195.749987)"><g><path d="M 36.046875 -29.96875 C 37.691406 -29.96875 38.515625 -29.289062 38.515625 -27.9375 C 38.515625 -27.519531 38.425781 -27 38.25 -26.375 L 37.171875 -22.71875 C 36.835938 -21.613281 36.429688 -20.832031 35.953125 -20.375 C 35.472656 -19.925781 34.785156 -19.703125 33.890625 -19.703125 C 33.140625 -19.703125 32.5625 -19.894531 32.15625 -20.28125 C 31.75 -20.675781 31.363281 -21.296875 31 -22.140625 L 30.234375 -23.984375 C 29.992188 -24.554688 29.738281 -24.945312 29.46875 -25.15625 C 29.195312 -25.363281 28.78125 -25.46875 28.21875 -25.46875 L 27.1875 -25.46875 L 21.46875 -5.359375 C 21.375 -4.960938 21.328125 -4.613281 21.328125 -4.3125 C 21.328125 -3.957031 21.378906 -3.660156 21.484375 -3.421875 C 21.585938 -3.179688 21.742188 -2.925781 21.953125 -2.65625 C 22.222656 -2.238281 22.359375 -1.894531 22.359375 -1.625 C 22.359375 -1.5625 22.332031 -1.410156 22.28125 -1.171875 C 22.125 -0.773438 21.828125 -0.488281 21.390625 -0.3125 C 20.960938 -0.132812 20.34375 -0.046875 19.53125 -0.046875 L 8.953125 -0.046875 C 8.328125 -0.046875 7.835938 -0.148438 7.484375 -0.359375 C 7.140625 -0.566406 6.96875 -0.867188 6.96875 -1.265625 C 6.96875 -1.441406 7.015625 -1.617188 7.109375 -1.796875 C 7.234375 -2.066406 7.375 -2.269531 7.53125 -2.40625 C 7.695312 -2.539062 7.945312 -2.710938 8.28125 -2.921875 C 8.726562 -3.191406 9.101562 -3.488281 9.40625 -3.8125 C 9.707031 -4.144531 9.960938 -4.660156 10.171875 -5.359375 L 15.84375 -25.46875 L 14.8125 -25.46875 C 14.144531 -25.46875 13.601562 -25.363281 13.1875 -25.15625 C 12.769531 -24.945312 12.316406 -24.554688 11.828125 -23.984375 L 10.34375 -22.140625 C 9.65625 -21.328125 8.988281 -20.71875 8.34375 -20.3125 C 7.695312 -19.90625 7 -19.703125 6.25 -19.703125 C 5.5625 -19.703125 5.019531 -19.882812 4.625 -20.25 C 4.238281 -20.613281 4.046875 -21.109375 4.046875 -21.734375 C 4.046875 -22.035156 4.09375 -22.363281 4.1875 -22.71875 L 5.359375 -26.8125 C 5.597656 -27.65625 5.863281 -28.296875 6.15625 -28.734375 C 6.457031 -29.171875 6.882812 -29.484375 7.4375 -29.671875 C 8 -29.867188 8.789062 -29.96875 9.8125 -29.96875 Z M 36.046875 -29.96875 "/></g></g></g><g fill="#809432" fill-opacity="1"><g transform="translate(110.225712, 195.749987)"><g><path d="M 15.65625 0.265625 C 13.132812 0.265625 10.867188 -0.195312 8.859375 -1.125 C 6.847656 -2.050781 5.25 -3.421875 4.0625 -5.234375 C 2.882812 -7.054688 2.296875 -9.253906 2.296875 -11.828125 C 2.296875 -13.628906 2.609375 -15.582031 3.234375 -17.6875 C 4.617188 -22.1875 6.707031 -25.429688 9.5 -27.421875 C 12.289062 -29.421875 15.273438 -30.421875 18.453125 -30.421875 C 20.160156 -30.421875 21.671875 -30.164062 22.984375 -29.65625 C 24.304688 -29.144531 25.523438 -28.410156 26.640625 -27.453125 L 27.859375 -28.390625 C 28.660156 -29.023438 29.335938 -29.460938 29.890625 -29.703125 C 30.453125 -29.941406 31.078125 -30.0625 31.765625 -30.0625 C 32.515625 -30.0625 33.113281 -29.894531 33.5625 -29.5625 C 34.019531 -29.226562 34.25 -28.75 34.25 -28.125 C 34.25 -27.789062 34.1875 -27.460938 34.0625 -27.140625 L 31.546875 -20.109375 C 31.273438 -19.304688 30.953125 -18.738281 30.578125 -18.40625 C 30.203125 -18.070312 29.640625 -17.90625 28.890625 -17.90625 C 28.109375 -17.90625 27.46875 -18.179688 26.96875 -18.734375 C 26.476562 -19.296875 25.921875 -20.25 25.296875 -21.59375 C 24.566406 -23.007812 23.976562 -23.941406 23.53125 -24.390625 C 23.082031 -24.835938 22.425781 -25.0625 21.5625 -25.0625 C 20.320312 -25.0625 19.132812 -24.300781 18 -22.78125 C 16.863281 -21.269531 15.828125 -19 14.890625 -15.96875 C 14.109375 -13.425781 13.71875 -11.296875 13.71875 -9.578125 C 13.71875 -8.078125 14.003906 -6.957031 14.578125 -6.21875 C 15.148438 -5.488281 15.914062 -5.125 16.875 -5.125 C 18.28125 -5.125 19.441406 -5.4375 20.359375 -6.0625 C 21.273438 -6.695312 22.210938 -7.554688 23.171875 -8.640625 C 23.773438 -9.296875 24.265625 -9.78125 24.640625 -10.09375 C 25.015625 -10.414062 25.410156 -10.578125 25.828125 -10.578125 C 26.367188 -10.578125 26.9375 -10.304688 27.53125 -9.765625 C 28.132812 -9.222656 28.421875 -8.679688 28.390625 -8.140625 C 28.421875 -7.484375 27.890625 -6.460938 26.796875 -5.078125 C 25.703125 -3.703125 24.1875 -2.46875 22.25 -1.375 C 20.3125 -0.28125 18.113281 0.265625 15.65625 0.265625 Z M 15.65625 0.265625 "/></g></g></g><g fill="#809432" fill-opacity="1"><g transform="translate(141.36577, 195.749987)"><g><path d="M 39.328125 -29.96875 C 39.960938 -29.96875 40.453125 -29.863281 40.796875 -29.65625 C 41.140625 -29.445312 41.3125 -29.175781 41.3125 -28.84375 C 41.3125 -28.695312 41.265625 -28.503906 41.171875 -28.265625 C 41.085938 -28.046875 40.960938 -27.851562 40.796875 -27.6875 C 40.628906 -27.53125 40.476562 -27.410156 40.34375 -27.328125 C 40.207031 -27.253906 40.109375 -27.191406 40.046875 -27.140625 C 39.566406 -26.867188 39.175781 -26.566406 38.875 -26.234375 C 38.582031 -25.898438 38.328125 -25.390625 38.109375 -24.703125 L 32.578125 -5.3125 C 32.460938 -4.914062 32.40625 -4.539062 32.40625 -4.1875 C 32.40625 -3.820312 32.457031 -3.535156 32.5625 -3.328125 C 32.664062 -3.117188 32.820312 -2.847656 33.03125 -2.515625 C 33.0625 -2.484375 33.144531 -2.367188 33.28125 -2.171875 C 33.414062 -1.984375 33.484375 -1.785156 33.484375 -1.578125 C 33.484375 -1.515625 33.453125 -1.363281 33.390625 -1.125 C 33.242188 -0.707031 32.957031 -0.414062 32.53125 -0.25 C 32.113281 -0.0820312 31.484375 0 30.640625 0 L 20.0625 0 C 19.4375 0 18.953125 -0.101562 18.609375 -0.3125 C 18.265625 -0.519531 18.09375 -0.804688 18.09375 -1.171875 C 18.09375 -1.347656 18.132812 -1.539062 18.21875 -1.75 C 18.34375 -1.988281 18.507812 -2.191406 18.71875 -2.359375 C 18.925781 -2.523438 19.132812 -2.671875 19.34375 -2.796875 C 19.820312 -3.054688 20.210938 -3.359375 20.515625 -3.703125 C 20.816406 -4.054688 21.070312 -4.59375 21.28125 -5.3125 L 23.4375 -12.828125 L 15.484375 -12.828125 L 13.3125 -5.3125 C 13.195312 -4.914062 13.140625 -4.539062 13.140625 -4.1875 C 13.140625 -3.820312 13.191406 -3.535156 13.296875 -3.328125 C 13.398438 -3.117188 13.554688 -2.847656 13.765625 -2.515625 C 13.796875 -2.484375 13.878906 -2.367188 14.015625 -2.171875 C 14.148438 -1.984375 14.21875 -1.785156 14.21875 -1.578125 C 14.21875 -1.515625 14.1875 -1.363281 14.125 -1.125 C 13.976562 -0.707031 13.691406 -0.414062 13.265625 -0.25 C 12.847656 -0.0820312 12.222656 0 11.390625 0 L 0.8125 0 C 0.175781 0 -0.3125 -0.101562 -0.65625 -0.3125 C -1 -0.519531 -1.171875 -0.804688 -1.171875 -1.171875 C -1.171875 -1.347656 -1.125 -1.539062 -1.03125 -1.75 C -0.914062 -1.988281 -0.75 -2.191406 -0.53125 -2.359375 C -0.320312 -2.523438 -0.113281 -2.671875 0.09375 -2.796875 C 0.570312 -3.054688 0.957031 -3.359375 1.25 -3.703125 C 1.550781 -4.054688 1.8125 -4.59375 2.03125 -5.3125 L 7.5625 -24.703125 C 7.675781 -25.097656 7.734375 -25.472656 7.734375 -25.828125 C 7.734375 -26.160156 7.679688 -26.4375 7.578125 -26.65625 C 7.472656 -26.882812 7.332031 -27.148438 7.15625 -27.453125 C 7.03125 -27.597656 6.921875 -27.753906 6.828125 -27.921875 C 6.742188 -28.085938 6.703125 -28.257812 6.703125 -28.4375 C 6.703125 -28.5 6.734375 -28.648438 6.796875 -28.890625 C 6.910156 -29.273438 7.175781 -29.550781 7.59375 -29.71875 C 8.019531 -29.882812 8.65625 -29.96875 9.5 -29.96875 L 20.0625 -29.96875 C 20.695312 -29.96875 21.1875 -29.863281 21.53125 -29.65625 C 21.875 -29.445312 22.046875 -29.175781 22.046875 -28.84375 C 22.046875 -28.695312 22.003906 -28.503906 21.921875 -28.265625 C 21.828125 -28.046875 21.695312 -27.851562 21.53125 -27.6875 C 21.363281 -27.53125 21.210938 -27.410156 21.078125 -27.328125 C 20.941406 -27.253906 20.847656 -27.191406 20.796875 -27.140625 C 20.304688 -26.867188 19.910156 -26.566406 19.609375 -26.234375 C 19.316406 -25.898438 19.066406 -25.390625 18.859375 -24.703125 L 16.734375 -17.328125 L 24.703125 -17.328125 L 26.8125 -24.703125 C 26.9375 -25.097656 27 -25.472656 27 -25.828125 C 27 -26.160156 26.945312 -26.4375 26.84375 -26.65625 C 26.738281 -26.882812 26.597656 -27.148438 26.421875 -27.453125 C 26.296875 -27.597656 26.1875 -27.753906 26.09375 -27.921875 C 26.007812 -28.085938 25.96875 -28.257812 25.96875 -28.4375 C 25.96875 -28.5 26 -28.648438 26.0625 -28.890625 C 26.175781 -29.273438 26.441406 -29.550781 26.859375 -29.71875 C 27.285156 -29.882812 27.914062 -29.96875 28.75 -29.96875 Z M 39.328125 -29.96875 "/></g></g></g><g fill="#809432" fill-opacity="1"><g transform="translate(178.895837, 195.749987)"><g><path d="M 27.5 -5.3125 C 27.375 -4.914062 27.3125 -4.523438 27.3125 -4.140625 C 27.3125 -3.804688 27.351562 -3.523438 27.4375 -3.296875 C 27.53125 -3.078125 27.628906 -2.898438 27.734375 -2.765625 C 27.847656 -2.628906 27.914062 -2.53125 27.9375 -2.46875 C 28.238281 -2.175781 28.390625 -1.878906 28.390625 -1.578125 C 28.390625 -1.515625 28.363281 -1.363281 28.3125 -1.125 C 28.1875 -0.707031 27.921875 -0.414062 27.515625 -0.25 C 27.109375 -0.0820312 26.488281 0 25.65625 0 L 14.984375 0 C 14.359375 0 13.867188 -0.101562 13.515625 -0.3125 C 13.171875 -0.519531 13 -0.804688 13 -1.171875 C 13 -1.347656 13.046875 -1.539062 13.140625 -1.75 C 13.234375 -1.988281 13.359375 -2.175781 13.515625 -2.3125 C 13.679688 -2.445312 13.914062 -2.609375 14.21875 -2.796875 C 14.695312 -3.054688 15.085938 -3.351562 15.390625 -3.6875 C 15.691406 -4.019531 15.945312 -4.5625 16.15625 -5.3125 L 17.328125 -9.1875 L 10.3125 -9.1875 L 9.09375 -6.609375 C 8.582031 -5.503906 8.328125 -4.632812 8.328125 -4 C 8.328125 -3.644531 8.382812 -3.351562 8.5 -3.125 C 8.625 -2.90625 8.804688 -2.675781 9.046875 -2.4375 C 9.253906 -2.1875 9.394531 -1.976562 9.46875 -1.8125 C 9.539062 -1.65625 9.550781 -1.441406 9.5 -1.171875 C 9.375 -0.722656 9.125 -0.414062 8.75 -0.25 C 8.375 -0.0820312 7.78125 0 6.96875 0 L 0.265625 0 C -0.421875 0 -0.941406 -0.125 -1.296875 -0.375 C -1.660156 -0.632812 -1.84375 -0.972656 -1.84375 -1.390625 C -1.84375 -1.867188 -1.671875 -2.25 -1.328125 -2.53125 C -0.984375 -2.820312 -0.46875 -3.132812 0.21875 -3.46875 C 1.125 -3.914062 1.84375 -4.351562 2.375 -4.78125 C 2.914062 -5.21875 3.382812 -5.828125 3.78125 -6.609375 L 11.796875 -23.21875 C 13.023438 -25.800781 14.46875 -27.671875 16.125 -28.828125 C 17.789062 -29.984375 19.988281 -30.5625 22.71875 -30.5625 C 25.78125 -30.5625 28.148438 -29.9375 29.828125 -28.6875 C 31.515625 -27.4375 32.359375 -25.703125 32.359375 -23.484375 C 32.359375 -22.554688 32.207031 -21.597656 31.90625 -20.609375 Z M 18.671875 -13.6875 L 21.0625 -21.59375 C 21.175781 -21.957031 21.234375 -22.332031 21.234375 -22.71875 C 21.234375 -23.289062 21.078125 -23.71875 20.765625 -24 C 20.453125 -24.289062 20.007812 -24.4375 19.4375 -24.4375 C 18.71875 -24.4375 18.101562 -24.222656 17.59375 -23.796875 C 17.082031 -23.378906 16.570312 -22.632812 16.0625 -21.5625 L 12.375 -13.6875 Z M 18.671875 -13.6875 "/></g></g></g><g fill="#809432" fill-opacity="1"><g transform="translate(210.305904, 195.749987)"><g/></g></g><g fill="#809432" fill-opacity="1"><g transform="translate(219.305924, 195.749987)"><g><path d="M 25.515625 -29.96875 C 27.554688 -29.96875 29.332031 -29.660156 30.84375 -29.046875 C 32.363281 -28.429688 33.519531 -27.59375 34.3125 -26.53125 C 35.101562 -25.46875 35.5 -24.242188 35.5 -22.859375 C 35.5 -22.078125 35.394531 -21.359375 35.1875 -20.703125 C 34.320312 -17.671875 31.816406 -15.75 27.671875 -14.9375 C 29.109375 -14.519531 30.25 -13.820312 31.09375 -12.84375 C 31.9375 -11.875 32.359375 -10.664062 32.359375 -9.21875 C 32.359375 -8.5625 32.238281 -7.785156 32 -6.890625 C 31.332031 -4.546875 30 -2.8125 28 -1.6875 C 26.007812 -0.5625 23.1875 0 19.53125 0 L 0.8125 0 C 0.175781 0 -0.3125 -0.101562 -0.65625 -0.3125 C -1 -0.519531 -1.171875 -0.804688 -1.171875 -1.171875 C -1.171875 -1.347656 -1.125 -1.539062 -1.03125 -1.75 C -0.914062 -2.082031 -0.722656 -2.335938 -0.453125 -2.515625 C -0.179688 -2.703125 -0.015625 -2.804688 0.046875 -2.828125 C 0.523438 -3.128906 0.914062 -3.4375 1.21875 -3.75 C 1.519531 -4.070312 1.773438 -4.59375 1.984375 -5.3125 L 7.46875 -24.703125 C 7.59375 -25.097656 7.65625 -25.472656 7.65625 -25.828125 C 7.65625 -26.160156 7.597656 -26.4375 7.484375 -26.65625 C 7.378906 -26.882812 7.238281 -27.148438 7.0625 -27.453125 C 6.789062 -27.835938 6.65625 -28.148438 6.65625 -28.390625 C 6.65625 -28.484375 6.6875 -28.648438 6.75 -28.890625 C 6.875 -29.273438 7.132812 -29.550781 7.53125 -29.71875 C 7.9375 -29.882812 8.5625 -29.96875 9.40625 -29.96875 Z M 23.484375 -21.734375 C 23.703125 -22.390625 23.8125 -23.003906 23.8125 -23.578125 C 23.8125 -25.140625 22.925781 -25.921875 21.15625 -25.921875 L 19.125 -25.921875 L 16.734375 -17.5 L 18.71875 -17.5 C 19.976562 -17.5 20.972656 -17.804688 21.703125 -18.421875 C 22.441406 -19.035156 23.035156 -20.140625 23.484375 -21.734375 Z M 20.203125 -8.5 C 20.410156 -9.21875 20.515625 -9.878906 20.515625 -10.484375 C 20.515625 -12.109375 19.585938 -12.921875 17.734375 -12.921875 L 15.484375 -12.921875 L 12.921875 -4.046875 L 15.203125 -4.046875 C 16.492188 -4.046875 17.53125 -4.367188 18.3125 -5.015625 C 19.09375 -5.660156 19.722656 -6.820312 20.203125 -8.5 Z M 20.203125 -8.5 "/></g></g></g><g fill="#809432" fill-opacity="1"><g transform="translate(253.550993, 195.749987)"><g><path d="M 19.984375 -29.96875 C 20.609375 -29.96875 21.09375 -29.867188 21.4375 -29.671875 C 21.78125 -29.484375 21.953125 -29.207031 21.953125 -28.84375 C 21.953125 -28.695312 21.910156 -28.503906 21.828125 -28.265625 C 21.734375 -28.046875 21.601562 -27.851562 21.4375 -27.6875 C 21.269531 -27.53125 21.117188 -27.410156 20.984375 -27.328125 C 20.859375 -27.253906 20.765625 -27.191406 20.703125 -27.140625 C 20.222656 -26.867188 19.832031 -26.566406 19.53125 -26.234375 C 19.226562 -25.898438 18.972656 -25.390625 18.765625 -24.703125 L 13.3125 -5.3125 C 13.195312 -4.914062 13.140625 -4.539062 13.140625 -4.1875 C 13.140625 -3.820312 13.191406 -3.519531 13.296875 -3.28125 C 13.398438 -3.039062 13.554688 -2.785156 13.765625 -2.515625 C 14.035156 -2.128906 14.171875 -1.816406 14.171875 -1.578125 C 14.171875 -1.515625 14.140625 -1.363281 14.078125 -1.125 C 13.960938 -0.707031 13.691406 -0.414062 13.265625 -0.25 C 12.847656 -0.0820312 12.222656 0 11.390625 0 L 0.8125 0 C 0.175781 0 -0.3125 -0.101562 -0.65625 -0.3125 C -1 -0.519531 -1.171875 -0.804688 -1.171875 -1.171875 C -1.171875 -1.347656 -1.125 -1.539062 -1.03125 -1.75 C -0.914062 -2.082031 -0.722656 -2.335938 -0.453125 -2.515625 C -0.179688 -2.703125 -0.015625 -2.804688 0.046875 -2.828125 C 0.523438 -3.128906 0.914062 -3.4375 1.21875 -3.75 C 1.519531 -4.070312 1.773438 -4.59375 1.984375 -5.3125 L 7.46875 -24.703125 C 7.59375 -25.097656 7.65625 -25.472656 7.65625 -25.828125 C 7.65625 -26.160156 7.597656 -26.4375 7.484375 -26.65625 C 7.378906 -26.882812 7.238281 -27.148438 7.0625 -27.453125 C 6.789062 -27.835938 6.65625 -28.148438 6.65625 -28.390625 C 6.65625 -28.484375 6.6875 -28.648438 6.75 -28.890625 C 6.875 -29.273438 7.132812 -29.550781 7.53125 -29.71875 C 7.9375 -29.882812 8.5625 -29.96875 9.40625 -29.96875 Z M 19.984375 -29.96875 "/></g></g></g><g fill="#809432" fill-opacity="1"><g transform="translate(271.731019, 195.749987)"><g><path d="M 36.046875 -29.96875 C 37.691406 -29.96875 38.515625 -29.289062 38.515625 -27.9375 C 38.515625 -27.519531 38.425781 -27 38.25 -26.375 L 37.171875 -22.71875 C 36.835938 -21.613281 36.429688 -20.832031 35.953125 -20.375 C 35.472656 -19.925781 34.785156 -19.703125 33.890625 -19.703125 C 33.140625 -19.703125 32.5625 -19.894531 32.15625 -20.28125 C 31.75 -20.675781 31.363281 -21.296875 31 -22.140625 L 30.234375 -23.984375 C 29.992188 -24.554688 29.738281 -24.945312 29.46875 -25.15625 C 29.195312 -25.363281 28.78125 -25.46875 28.21875 -25.46875 L 27.1875 -25.46875 L 21.46875 -5.359375 C 21.375 -4.960938 21.328125 -4.613281 21.328125 -4.3125 C 21.328125 -3.957031 21.378906 -3.660156 21.484375 -3.421875 C 21.585938 -3.179688 21.742188 -2.925781 21.953125 -2.65625 C 22.222656 -2.238281 22.359375 -1.894531 22.359375 -1.625 C 22.359375 -1.5625 22.332031 -1.410156 22.28125 -1.171875 C 22.125 -0.773438 21.828125 -0.488281 21.390625 -0.3125 C 20.960938 -0.132812 20.34375 -0.046875 19.53125 -0.046875 L 8.953125 -0.046875 C 8.328125 -0.046875 7.835938 -0.148438 7.484375 -0.359375 C 7.140625 -0.566406 6.96875 -0.867188 6.96875 -1.265625 C 6.96875 -1.441406 7.015625 -1.617188 7.109375 -1.796875 C 7.234375 -2.066406 7.375 -2.269531 7.53125 -2.40625 C 7.695312 -2.539062 7.945312 -2.710938 8.28125 -2.921875 C 8.726562 -3.191406 9.101562 -3.488281 9.40625 -3.8125 C 9.707031 -4.144531 9.960938 -4.660156 10.171875 -5.359375 L 15.84375 -25.46875 L 14.8125 -25.46875 C 14.144531 -25.46875 13.601562 -25.363281 13.1875 -25.15625 C 12.769531 -24.945312 12.316406 -24.554688 11.828125 -23.984375 L 10.34375 -22.140625 C 9.65625 -21.328125 8.988281 -20.71875 8.34375 -20.3125 C 7.695312 -19.90625 7 -19.703125 6.25 -19.703125 C 5.5625 -19.703125 5.019531 -19.882812 4.625 -20.25 C 4.238281 -20.613281 4.046875 -21.109375 4.046875 -21.734375 C 4.046875 -22.035156 4.09375 -22.363281 4.1875 -22.71875 L 5.359375 -26.8125 C 5.597656 -27.65625 5.863281 -28.296875 6.15625 -28.734375 C 6.457031 -29.171875 6.882812 -29.484375 7.4375 -29.671875 C 8 -29.867188 8.789062 -29.96875 9.8125 -29.96875 Z M 36.046875 -29.96875 "/></g></g></g><g fill="#809432" fill-opacity="1"><g transform="translate(305.88608, 195.749987)"><g><path d="M 29.390625 -29.96875 C 30.492188 -29.96875 31.351562 -29.726562 31.96875 -29.25 C 32.582031 -28.769531 32.890625 -28.109375 32.890625 -27.265625 C 32.890625 -26.847656 32.832031 -26.445312 32.71875 -26.0625 L 31.546875 -21.875 C 31.335938 -21.0625 31.03125 -20.492188 30.625 -20.171875 C 30.21875 -19.859375 29.640625 -19.703125 28.890625 -19.703125 C 28.171875 -19.703125 27.609375 -19.859375 27.203125 -20.171875 C 26.796875 -20.492188 26.488281 -21.015625 26.28125 -21.734375 L 25.5625 -24.296875 C 25.40625 -24.835938 25.222656 -25.195312 25.015625 -25.375 C 24.804688 -25.5625 24.40625 -25.65625 23.8125 -25.65625 L 19.078125 -25.65625 L 16.828125 -17.640625 L 18.8125 -17.640625 C 19.019531 -17.640625 19.304688 -17.789062 19.671875 -18.09375 L 21.1875 -19.4375 C 21.644531 -19.832031 22.035156 -20.117188 22.359375 -20.296875 C 22.691406 -20.472656 23.097656 -20.5625 23.578125 -20.5625 C 24.117188 -20.5625 24.5625 -20.414062 24.90625 -20.125 C 25.25 -19.84375 25.421875 -19.476562 25.421875 -19.03125 C 25.421875 -18.914062 25.390625 -18.738281 25.328125 -18.5 L 23.484375 -12.234375 C 23.304688 -11.578125 23 -11.09375 22.5625 -10.78125 C 22.132812 -10.46875 21.664062 -10.3125 21.15625 -10.3125 C 20.3125 -10.3125 19.679688 -10.742188 19.265625 -11.609375 L 18.5 -13.1875 C 18.289062 -13.632812 17.957031 -13.859375 17.5 -13.859375 L 15.75 -13.859375 L 13.09375 -4.3125 L 17.0625 -4.3125 C 17.625 -4.3125 18.125 -4.425781 18.5625 -4.65625 C 19 -4.882812 19.472656 -5.28125 19.984375 -5.84375 L 22.6875 -8.8125 C 23.164062 -9.320312 23.617188 -9.691406 24.046875 -9.921875 C 24.484375 -10.148438 25.019531 -10.265625 25.65625 -10.265625 C 26.3125 -10.265625 26.847656 -10.113281 27.265625 -9.8125 C 27.691406 -9.507812 27.90625 -9.054688 27.90625 -8.453125 C 27.90625 -8.210938 27.859375 -7.929688 27.765625 -7.609375 L 26.453125 -3.0625 C 26.128906 -1.914062 25.648438 -1.117188 25.015625 -0.671875 C 24.390625 -0.222656 23.476562 0 22.28125 0 L 0.8125 0 C 0.175781 0 -0.3125 -0.101562 -0.65625 -0.3125 C -1 -0.519531 -1.171875 -0.804688 -1.171875 -1.171875 C -1.171875 -1.347656 -1.125 -1.539062 -1.03125 -1.75 C -0.914062 -2.082031 -0.722656 -2.335938 -0.453125 -2.515625 C -0.179688 -2.703125 -0.015625 -2.804688 0.046875 -2.828125 C 0.523438 -3.128906 0.914062 -3.4375 1.21875 -3.75 C 1.519531 -4.070312 1.773438 -4.59375 1.984375 -5.3125 L 7.515625 -24.703125 C 7.628906 -25.097656 7.6875 -25.457031 7.6875 -25.78125 C 7.6875 -26.144531 7.632812 -26.445312 7.53125 -26.6875 C 7.425781 -26.925781 7.269531 -27.179688 7.0625 -27.453125 C 6.789062 -27.835938 6.65625 -28.148438 6.65625 -28.390625 C 6.65625 -28.484375 6.6875 -28.648438 6.75 -28.890625 C 6.875 -29.273438 7.144531 -29.550781 7.5625 -29.71875 C 7.976562 -29.882812 8.59375 -29.96875 9.40625 -29.96875 Z M 29.390625 -29.96875 "/></g></g></g><g fill="#809432" fill-opacity="1"><g transform="translate(336.081143, 195.749987)"><g><path d="M 16.828125 -30.234375 C 18.503906 -30.234375 20.054688 -30.03125 21.484375 -29.625 C 22.910156 -29.226562 24.359375 -28.59375 25.828125 -27.71875 L 26.859375 -28.578125 C 27.578125 -29.148438 28.171875 -29.539062 28.640625 -29.75 C 29.109375 -29.957031 29.640625 -30.0625 30.234375 -30.0625 C 30.953125 -30.0625 31.519531 -29.898438 31.9375 -29.578125 C 32.363281 -29.265625 32.578125 -28.8125 32.578125 -28.21875 C 32.578125 -27.976562 32.53125 -27.722656 32.4375 -27.453125 L 30.5625 -21.234375 C 30.34375 -20.515625 30.078125 -20.003906 29.765625 -19.703125 C 29.453125 -19.410156 28.976562 -19.265625 28.34375 -19.265625 C 27.6875 -19.265625 27.109375 -19.460938 26.609375 -19.859375 C 26.117188 -20.265625 25.347656 -21.097656 24.296875 -22.359375 C 23.242188 -23.566406 22.289062 -24.414062 21.4375 -24.90625 C 20.582031 -25.40625 19.707031 -25.65625 18.8125 -25.65625 C 18.144531 -25.65625 17.585938 -25.4375 17.140625 -25 C 16.691406 -24.5625 16.46875 -24.03125 16.46875 -23.40625 C 16.46875 -22.675781 16.828125 -22.003906 17.546875 -21.390625 C 18.265625 -20.773438 19.390625 -20.003906 20.921875 -19.078125 C 22.484375 -18.148438 23.773438 -17.3125 24.796875 -16.5625 C 25.816406 -15.8125 26.6875 -14.878906 27.40625 -13.765625 C 28.125 -12.660156 28.484375 -11.382812 28.484375 -9.9375 C 28.484375 -9.007812 28.332031 -8.082031 28.03125 -7.15625 C 27.3125 -4.757812 25.914062 -2.9375 23.84375 -1.6875 C 21.78125 -0.4375 19.367188 0.1875 16.609375 0.1875 C 14.535156 0.1875 12.789062 -0.0507812 11.375 -0.53125 C 9.96875 -1.019531 8.53125 -1.832031 7.0625 -2.96875 L 5.4375 -1.625 C 4.6875 -0.988281 4.070312 -0.554688 3.59375 -0.328125 C 3.113281 -0.109375 2.578125 0 1.984375 0 C 1.285156 0 0.734375 -0.160156 0.328125 -0.484375 C -0.0664062 -0.816406 -0.265625 -1.269531 -0.265625 -1.84375 C -0.265625 -2.144531 -0.207031 -2.460938 -0.09375 -2.796875 L 2.109375 -9.5 C 2.347656 -10.28125 2.675781 -10.832031 3.09375 -11.15625 C 3.519531 -11.488281 4.0625 -11.65625 4.71875 -11.65625 C 5.414062 -11.65625 6.039062 -11.414062 6.59375 -10.9375 C 7.144531 -10.457031 7.875 -9.585938 8.78125 -8.328125 C 9.738281 -6.941406 10.628906 -5.976562 11.453125 -5.4375 C 12.273438 -4.90625 13.257812 -4.640625 14.40625 -4.640625 C 15.207031 -4.640625 15.828125 -4.765625 16.265625 -5.015625 C 16.703125 -5.273438 17.007812 -5.6875 17.1875 -6.25 C 17.25 -6.40625 17.28125 -6.632812 17.28125 -6.9375 C 17.28125 -7.65625 16.929688 -8.3125 16.234375 -8.90625 C 15.546875 -9.507812 14.484375 -10.226562 13.046875 -11.0625 C 11.515625 -12 10.269531 -12.832031 9.3125 -13.5625 C 8.351562 -14.300781 7.519531 -15.222656 6.8125 -16.328125 C 6.113281 -17.441406 5.765625 -18.75 5.765625 -20.25 C 5.765625 -21.300781 5.925781 -22.335938 6.25 -23.359375 C 6.882812 -25.421875 8.175781 -27.082031 10.125 -28.34375 C 12.070312 -29.601562 14.304688 -30.234375 16.828125 -30.234375 Z M 16.828125 -30.234375 "/></g></g></g><g fill="#784106" fill-opacity="1"><g transform="translate(47.44869, 215.624986)"><g><path d="M 5.875 0.15625 C 4.945312 0.15625 4.117188 -0.0390625 3.390625 -0.4375 C 2.671875 -0.84375 2.101562 -1.457031 1.6875 -2.28125 C 1.269531 -3.101562 1.0625 -4.128906 1.0625 -5.359375 C 1.0625 -6.578125 1.269531 -7.597656 1.6875 -8.421875 C 2.101562 -9.242188 2.671875 -9.851562 3.390625 -10.25 C 4.117188 -10.65625 4.945312 -10.859375 5.875 -10.859375 C 6.800781 -10.859375 7.625 -10.65625 8.34375 -10.25 C 9.070312 -9.851562 9.640625 -9.242188 10.046875 -8.421875 C 10.460938 -7.597656 10.671875 -6.578125 10.671875 -5.359375 C 10.671875 -4.128906 10.460938 -3.101562 10.046875 -2.28125 C 9.640625 -1.457031 9.070312 -0.84375 8.34375 -0.4375 C 7.625 -0.0390625 6.800781 0.15625 5.875 0.15625 Z M 5.875 -1.015625 C 6.988281 -1.015625 7.84375 -1.359375 8.4375 -2.046875 C 9.03125 -2.742188 9.328125 -3.847656 9.328125 -5.359375 C 9.328125 -6.859375 9.03125 -7.957031 8.4375 -8.65625 C 7.84375 -9.351562 6.988281 -9.703125 5.875 -9.703125 C 3.570312 -9.703125 2.421875 -8.253906 2.421875 -5.359375 C 2.421875 -2.460938 3.570312 -1.015625 5.875 -1.015625 Z M 5.875 -1.015625 "/></g></g><g transform="translate(59.196736, 215.624986)"><g><path d="M 3.21875 0.15625 C 2.644531 0.15625 2.191406 -0.00390625 1.859375 -0.328125 C 1.535156 -0.660156 1.375 -1.144531 1.375 -1.78125 L 1.375 -11.328125 L 2.578125 -11.328125 L 2.578125 -1.875 C 2.578125 -1.53125 2.640625 -1.285156 2.765625 -1.140625 C 2.890625 -0.992188 3.09375 -0.921875 3.375 -0.921875 C 3.539062 -0.921875 3.707031 -0.945312 3.875 -1 L 3.984375 -0.96875 L 4.109375 -0.03125 C 4.023438 0.03125 3.898438 0.078125 3.734375 0.109375 C 3.578125 0.140625 3.40625 0.15625 3.21875 0.15625 Z M 3.21875 0.15625 "/></g></g><g transform="translate(63.591267, 215.624986)"><g><path d="M 4.1875 0.15625 C 3.539062 0.15625 2.96875 0 2.46875 -0.3125 C 1.976562 -0.625 1.59375 -1.09375 1.3125 -1.71875 C 1.03125 -2.34375 0.890625 -3.113281 0.890625 -4.03125 C 0.890625 -4.957031 1.035156 -5.734375 1.328125 -6.359375 C 1.617188 -6.984375 2.019531 -7.453125 2.53125 -7.765625 C 3.050781 -8.078125 3.648438 -8.234375 4.328125 -8.234375 C 4.867188 -8.234375 5.351562 -8.128906 5.78125 -7.921875 C 6.207031 -7.722656 6.578125 -7.390625 6.890625 -6.921875 L 7.03125 -6.953125 L 7.03125 -11.328125 L 8.234375 -11.328125 L 8.234375 0 L 7.03125 0 L 7.03125 -1.171875 L 6.890625 -1.203125 C 6.617188 -0.804688 6.257812 -0.476562 5.8125 -0.21875 C 5.363281 0.03125 4.820312 0.15625 4.1875 0.15625 Z M 4.5625 -0.921875 C 5.3125 -0.921875 5.910156 -1.175781 6.359375 -1.6875 C 6.804688 -2.207031 7.03125 -2.988281 7.03125 -4.03125 C 7.03125 -5.09375 6.804688 -5.878906 6.359375 -6.390625 C 5.910156 -6.898438 5.3125 -7.15625 4.5625 -7.15625 C 3.789062 -7.15625 3.191406 -6.90625 2.765625 -6.40625 C 2.347656 -5.90625 2.140625 -5.113281 2.140625 -4.03125 C 2.140625 -1.957031 2.945312 -0.921875 4.5625 -0.921875 Z M 4.5625 -0.921875 "/></g></g><g transform="translate(73.237263, 215.624986)"><g/></g><g transform="translate(76.91402, 215.624986)"><g><path d="M 4.6875 0.15625 C 4.007812 0.15625 3.398438 0.0664062 2.859375 -0.109375 C 2.328125 -0.296875 1.882812 -0.539062 1.53125 -0.84375 C 1.175781 -1.144531 0.910156 -1.472656 0.734375 -1.828125 L 1.421875 -2.65625 L 1.609375 -2.65625 C 2.265625 -1.539062 3.289062 -0.984375 4.6875 -0.984375 C 5.488281 -0.984375 6.082031 -1.148438 6.46875 -1.484375 C 6.863281 -1.828125 7.0625 -2.296875 7.0625 -2.890625 C 7.0625 -3.242188 7 -3.539062 6.875 -3.78125 C 6.75 -4.03125 6.535156 -4.238281 6.234375 -4.40625 C 5.929688 -4.582031 5.523438 -4.734375 5.015625 -4.859375 L 3.765625 -5.171875 C 2.828125 -5.398438 2.140625 -5.757812 1.703125 -6.25 C 1.265625 -6.738281 1.046875 -7.359375 1.046875 -8.109375 C 1.046875 -8.640625 1.179688 -9.113281 1.453125 -9.53125 C 1.722656 -9.945312 2.117188 -10.269531 2.640625 -10.5 C 3.171875 -10.738281 3.804688 -10.859375 4.546875 -10.859375 C 5.347656 -10.859375 6.023438 -10.742188 6.578125 -10.515625 C 7.128906 -10.296875 7.570312 -9.957031 7.90625 -9.5 L 7.296875 -8.671875 L 7.109375 -8.671875 C 6.804688 -9.046875 6.441406 -9.320312 6.015625 -9.5 C 5.597656 -9.675781 5.109375 -9.765625 4.546875 -9.765625 C 3.796875 -9.765625 3.234375 -9.617188 2.859375 -9.328125 C 2.484375 -9.046875 2.296875 -8.648438 2.296875 -8.140625 C 2.296875 -7.648438 2.429688 -7.265625 2.703125 -6.984375 C 2.984375 -6.703125 3.453125 -6.484375 4.109375 -6.328125 L 5.390625 -6.015625 C 6.429688 -5.765625 7.1875 -5.382812 7.65625 -4.875 C 8.125 -4.375 8.359375 -3.734375 8.359375 -2.953125 C 8.359375 -2.347656 8.222656 -1.8125 7.953125 -1.34375 C 7.679688 -0.875 7.269531 -0.503906 6.71875 -0.234375 C 6.164062 0.0234375 5.488281 0.15625 4.6875 0.15625 Z M 4.6875 0.15625 "/></g></g><g transform="translate(86.091266, 215.624986)"><g><path d="M 4.640625 0.15625 C 3.921875 0.15625 3.28125 -0.00390625 2.71875 -0.328125 C 2.15625 -0.660156 1.707031 -1.140625 1.375 -1.765625 C 1.050781 -2.398438 0.890625 -3.15625 0.890625 -4.03125 C 0.890625 -4.914062 1.050781 -5.675781 1.375 -6.3125 C 1.707031 -6.945312 2.15625 -7.425781 2.71875 -7.75 C 3.28125 -8.070312 3.921875 -8.234375 4.640625 -8.234375 C 5.492188 -8.234375 6.171875 -8.070312 6.671875 -7.75 C 7.179688 -7.425781 7.546875 -6.992188 7.765625 -6.453125 L 6.953125 -5.875 L 6.8125 -5.875 C 6.59375 -6.320312 6.3125 -6.644531 5.96875 -6.84375 C 5.625 -7.050781 5.179688 -7.15625 4.640625 -7.15625 C 4.140625 -7.15625 3.703125 -7.035156 3.328125 -6.796875 C 2.953125 -6.566406 2.660156 -6.21875 2.453125 -5.75 C 2.242188 -5.28125 2.140625 -4.707031 2.140625 -4.03125 C 2.140625 -3.363281 2.242188 -2.796875 2.453125 -2.328125 C 2.660156 -1.859375 2.953125 -1.503906 3.328125 -1.265625 C 3.703125 -1.035156 4.140625 -0.921875 4.640625 -0.921875 C 5.203125 -0.921875 5.664062 -1.046875 6.03125 -1.296875 C 6.394531 -1.546875 6.6875 -1.945312 6.90625 -2.5 L 7.046875 -2.5 L 7.84375 -2.03125 C 7.625 -1.351562 7.242188 -0.816406 6.703125 -0.421875 C 6.171875 -0.0351562 5.484375 0.15625 4.640625 0.15625 Z M 4.640625 0.15625 "/></g></g><g transform="translate(94.418902, 215.624986)"><g><path d="M 1.40625 0 L 1.40625 -11.328125 L 2.59375 -11.328125 L 2.59375 -6.921875 L 2.75 -6.90625 C 3.332031 -7.789062 4.164062 -8.234375 5.25 -8.234375 C 6.21875 -8.234375 6.921875 -7.984375 7.359375 -7.484375 C 7.796875 -6.992188 8.015625 -6.234375 8.015625 -5.203125 L 8.015625 0 L 6.828125 0 L 6.828125 -5.171875 C 6.828125 -5.660156 6.765625 -6.050781 6.640625 -6.34375 C 6.515625 -6.644531 6.320312 -6.859375 6.0625 -6.984375 C 5.800781 -7.117188 5.457031 -7.1875 5.03125 -7.1875 C 4.300781 -7.1875 3.710938 -6.945312 3.265625 -6.46875 C 2.816406 -6 2.59375 -5.222656 2.59375 -4.140625 L 2.59375 0 Z M 1.40625 0 "/></g></g><g transform="translate(103.720659, 215.624986)"><g><path d="M 4.640625 0.15625 C 3.878906 0.15625 3.210938 -0.00390625 2.640625 -0.328125 C 2.078125 -0.648438 1.644531 -1.125 1.34375 -1.75 C 1.039062 -2.382812 0.890625 -3.144531 0.890625 -4.03125 C 0.890625 -4.925781 1.039062 -5.6875 1.34375 -6.3125 C 1.644531 -6.945312 2.078125 -7.425781 2.640625 -7.75 C 3.210938 -8.070312 3.878906 -8.234375 4.640625 -8.234375 C 5.398438 -8.234375 6.0625 -8.070312 6.625 -7.75 C 7.1875 -7.425781 7.617188 -6.945312 7.921875 -6.3125 C 8.234375 -5.6875 8.390625 -4.925781 8.390625 -4.03125 C 8.390625 -3.144531 8.234375 -2.382812 7.921875 -1.75 C 7.617188 -1.125 7.1875 -0.648438 6.625 -0.328125 C 6.0625 -0.00390625 5.398438 0.15625 4.640625 0.15625 Z M 4.640625 -0.921875 C 5.441406 -0.921875 6.054688 -1.171875 6.484375 -1.671875 C 6.910156 -2.179688 7.125 -2.96875 7.125 -4.03125 C 7.125 -5.101562 6.910156 -5.890625 6.484375 -6.390625 C 6.054688 -6.898438 5.441406 -7.15625 4.640625 -7.15625 C 3.828125 -7.15625 3.207031 -6.898438 2.78125 -6.390625 C 2.351562 -5.878906 2.140625 -5.09375 2.140625 -4.03125 C 2.140625 -2.96875 2.351562 -2.179688 2.78125 -1.671875 C 3.207031 -1.171875 3.828125 -0.921875 4.640625 -0.921875 Z M 4.640625 -0.921875 "/></g></g><g transform="translate(112.99312, 215.624986)"><g><path d="M 4.640625 0.15625 C 3.878906 0.15625 3.210938 -0.00390625 2.640625 -0.328125 C 2.078125 -0.648438 1.644531 -1.125 1.34375 -1.75 C 1.039062 -2.382812 0.890625 -3.144531 0.890625 -4.03125 C 0.890625 -4.925781 1.039062 -5.6875 1.34375 -6.3125 C 1.644531 -6.945312 2.078125 -7.425781 2.640625 -7.75 C 3.210938 -8.070312 3.878906 -8.234375 4.640625 -8.234375 C 5.398438 -8.234375 6.0625 -8.070312 6.625 -7.75 C 7.1875 -7.425781 7.617188 -6.945312 7.921875 -6.3125 C 8.234375 -5.6875 8.390625 -4.925781 8.390625 -4.03125 C 8.390625 -3.144531 8.234375 -2.382812 7.921875 -1.75 C 7.617188 -1.125 7.1875 -0.648438 6.625 -0.328125 C 6.0625 -0.00390625 5.398438 0.15625 4.640625 0.15625 Z M 4.640625 -0.921875 C 5.441406 -0.921875 6.054688 -1.171875 6.484375 -1.671875 C 6.910156 -2.179688 7.125 -2.96875 7.125 -4.03125 C 7.125 -5.101562 6.910156 -5.890625 6.484375 -6.390625 C 6.054688 -6.898438 5.441406 -7.15625 4.640625 -7.15625 C 3.828125 -7.15625 3.207031 -6.898438 2.78125 -6.390625 C 2.351562 -5.878906 2.140625 -5.09375 2.140625 -4.03125 C 2.140625 -2.96875 2.351562 -2.179688 2.78125 -1.671875 C 3.207031 -1.171875 3.828125 -0.921875 4.640625 -0.921875 Z M 4.640625 -0.921875 "/></g></g><g transform="translate(122.26558, 215.624986)"><g><path d="M 3.21875 0.15625 C 2.644531 0.15625 2.191406 -0.00390625 1.859375 -0.328125 C 1.535156 -0.660156 1.375 -1.144531 1.375 -1.78125 L 1.375 -11.328125 L 2.578125 -11.328125 L 2.578125 -1.875 C 2.578125 -1.53125 2.640625 -1.285156 2.765625 -1.140625 C 2.890625 -0.992188 3.09375 -0.921875 3.375 -0.921875 C 3.539062 -0.921875 3.707031 -0.945312 3.875 -1 L 3.984375 -0.96875 L 4.109375 -0.03125 C 4.023438 0.03125 3.898438 0.078125 3.734375 0.109375 C 3.578125 0.140625 3.40625 0.15625 3.21875 0.15625 Z M 3.21875 0.15625 "/></g></g><g transform="translate(126.660111, 215.624986)"><g/></g><g transform="translate(130.336869, 215.624986)"><g><path d="M 5.921875 0.15625 C 4.984375 0.15625 4.144531 -0.0546875 3.40625 -0.484375 C 2.675781 -0.921875 2.101562 -1.550781 1.6875 -2.375 C 1.269531 -3.207031 1.0625 -4.203125 1.0625 -5.359375 C 1.0625 -6.515625 1.269531 -7.503906 1.6875 -8.328125 C 2.101562 -9.160156 2.675781 -9.789062 3.40625 -10.21875 C 4.144531 -10.644531 4.984375 -10.859375 5.921875 -10.859375 C 6.921875 -10.859375 7.75 -10.671875 8.40625 -10.296875 C 9.070312 -9.921875 9.550781 -9.347656 9.84375 -8.578125 L 9.046875 -8.046875 L 8.859375 -8.046875 C 8.566406 -8.660156 8.1875 -9.09375 7.71875 -9.34375 C 7.25 -9.601562 6.648438 -9.734375 5.921875 -9.734375 C 5.242188 -9.734375 4.644531 -9.582031 4.125 -9.28125 C 3.601562 -8.976562 3.1875 -8.5 2.875 -7.84375 C 2.570312 -7.195312 2.421875 -6.367188 2.421875 -5.359375 C 2.421875 -4.335938 2.570312 -3.5 2.875 -2.84375 C 3.1875 -2.195312 3.601562 -1.722656 4.125 -1.421875 C 4.644531 -1.128906 5.242188 -0.984375 5.921875 -0.984375 C 6.691406 -0.984375 7.320312 -1.15625 7.8125 -1.5 C 8.3125 -1.851562 8.679688 -2.421875 8.921875 -3.203125 L 9.109375 -3.203125 L 9.953125 -2.78125 C 9.691406 -1.832031 9.21875 -1.101562 8.53125 -0.59375 C 7.84375 -0.09375 6.972656 0.15625 5.921875 0.15625 Z M 5.921875 0.15625 "/></g></g><g transform="translate(140.839798, 215.624986)"><g><path d="M 1.40625 0 L 1.40625 -8.078125 L 2.546875 -8.078125 L 2.546875 -6.8125 L 2.703125 -6.78125 C 3.078125 -7.695312 3.78125 -8.15625 4.8125 -8.15625 C 5.363281 -8.15625 5.78125 -8.054688 6.0625 -7.859375 L 5.75 -6.84375 L 5.609375 -6.8125 C 5.304688 -6.957031 4.972656 -7.03125 4.609375 -7.03125 C 3.960938 -7.03125 3.460938 -6.789062 3.109375 -6.3125 C 2.765625 -5.832031 2.59375 -5.050781 2.59375 -3.96875 L 2.59375 0 Z M 1.40625 0 "/></g></g><g transform="translate(147.080032, 215.624986)"><g><path d="M 3.984375 0.15625 C 3.078125 0.15625 2.398438 -0.0820312 1.953125 -0.5625 C 1.503906 -1.050781 1.28125 -1.765625 1.28125 -2.703125 L 1.28125 -8.078125 L 2.46875 -8.078125 L 2.46875 -2.71875 C 2.46875 -1.5 3.046875 -0.890625 4.203125 -0.890625 C 4.929688 -0.890625 5.507812 -1.128906 5.9375 -1.609375 C 6.363281 -2.085938 6.578125 -2.863281 6.578125 -3.9375 L 6.578125 -8.078125 L 7.765625 -8.078125 L 7.765625 0 L 6.640625 0 L 6.640625 -1.265625 L 6.484375 -1.296875 C 6.210938 -0.804688 5.878906 -0.441406 5.484375 -0.203125 C 5.097656 0.0351562 4.597656 0.15625 3.984375 0.15625 Z M 3.984375 0.15625 "/></g></g><g transform="translate(156.257277, 215.624986)"><g><path d="M 1.40625 0 L 1.40625 -8.078125 L 2.546875 -8.078125 L 2.546875 -6.8125 L 2.703125 -6.78125 C 2.960938 -7.25 3.300781 -7.609375 3.71875 -7.859375 C 4.132812 -8.109375 4.644531 -8.234375 5.25 -8.234375 C 6.21875 -8.234375 6.921875 -7.984375 7.359375 -7.484375 C 7.796875 -6.992188 8.015625 -6.234375 8.015625 -5.203125 L 8.015625 0 L 6.828125 0 L 6.828125 -5.171875 C 6.828125 -5.660156 6.765625 -6.050781 6.640625 -6.34375 C 6.515625 -6.644531 6.320312 -6.859375 6.0625 -6.984375 C 5.800781 -7.117188 5.457031 -7.1875 5.03125 -7.1875 C 4.300781 -7.1875 3.710938 -6.945312 3.265625 -6.46875 C 2.816406 -5.988281 2.59375 -5.210938 2.59375 -4.140625 L 2.59375 0 Z M 1.40625 0 "/></g></g><g transform="translate(165.559034, 215.624986)"><g><path d="M 4.640625 0.15625 C 3.921875 0.15625 3.28125 -0.00390625 2.71875 -0.328125 C 2.15625 -0.660156 1.707031 -1.140625 1.375 -1.765625 C 1.050781 -2.398438 0.890625 -3.15625 0.890625 -4.03125 C 0.890625 -4.914062 1.050781 -5.675781 1.375 -6.3125 C 1.707031 -6.945312 2.15625 -7.425781 2.71875 -7.75 C 3.28125 -8.070312 3.921875 -8.234375 4.640625 -8.234375 C 5.492188 -8.234375 6.171875 -8.070312 6.671875 -7.75 C 7.179688 -7.425781 7.546875 -6.992188 7.765625 -6.453125 L 6.953125 -5.875 L 6.8125 -5.875 C 6.59375 -6.320312 6.3125 -6.644531 5.96875 -6.84375 C 5.625 -7.050781 5.179688 -7.15625 4.640625 -7.15625 C 4.140625 -7.15625 3.703125 -7.035156 3.328125 -6.796875 C 2.953125 -6.566406 2.660156 -6.21875 2.453125 -5.75 C 2.242188 -5.28125 2.140625 -4.707031 2.140625 -4.03125 C 2.140625 -3.363281 2.242188 -2.796875 2.453125 -2.328125 C 2.660156 -1.859375 2.953125 -1.503906 3.328125 -1.265625 C 3.703125 -1.035156 4.140625 -0.921875 4.640625 -0.921875 C 5.203125 -0.921875 5.664062 -1.046875 6.03125 -1.296875 C 6.394531 -1.546875 6.6875 -1.945312 6.90625 -2.5 L 7.046875 -2.5 L 7.84375 -2.03125 C 7.625 -1.351562 7.242188 -0.816406 6.703125 -0.421875 C 6.171875 -0.0351562 5.484375 0.15625 4.640625 0.15625 Z M 4.640625 0.15625 "/></g></g><g transform="translate(173.88667, 215.624986)"><g><path d="M 1.40625 0 L 1.40625 -11.328125 L 2.59375 -11.328125 L 2.59375 -6.921875 L 2.75 -6.90625 C 3.332031 -7.789062 4.164062 -8.234375 5.25 -8.234375 C 6.21875 -8.234375 6.921875 -7.984375 7.359375 -7.484375 C 7.796875 -6.992188 8.015625 -6.234375 8.015625 -5.203125 L 8.015625 0 L 6.828125 0 L 6.828125 -5.171875 C 6.828125 -5.660156 6.765625 -6.050781 6.640625 -6.34375 C 6.515625 -6.644531 6.320312 -6.859375 6.0625 -6.984375 C 5.800781 -7.117188 5.457031 -7.1875 5.03125 -7.1875 C 4.300781 -7.1875 3.710938 -6.945312 3.265625 -6.46875 C 2.816406 -6 2.59375 -5.222656 2.59375 -4.140625 L 2.59375 0 Z M 1.40625 0 "/></g></g><g transform="translate(183.188428, 215.624986)"><g><path d="M 0.46875 2.234375 C 0.882812 1.953125 1.238281 1.628906 1.53125 1.265625 C 1.832031 0.898438 1.988281 0.5 2 0.0625 C 1.707031 0.0625 1.476562 -0.015625 1.3125 -0.171875 C 1.144531 -0.328125 1.0625 -0.535156 1.0625 -0.796875 C 1.0625 -1.046875 1.140625 -1.253906 1.296875 -1.421875 C 1.460938 -1.585938 1.675781 -1.671875 1.9375 -1.671875 C 2.226562 -1.671875 2.460938 -1.566406 2.640625 -1.359375 C 2.816406 -1.160156 2.90625 -0.847656 2.90625 -0.421875 C 2.90625 0.335938 2.738281 0.976562 2.40625 1.5 C 2.082031 2.019531 1.601562 2.492188 0.96875 2.921875 Z M 0.46875 2.234375 "/></g></g><g transform="translate(187.165478, 215.624986)"><g/></g><g transform="translate(190.842236, 215.624986)"><g><path d="M 2.84375 0 L 1.625 0 L 1.625 -10.703125 L 3.171875 -10.703125 L 8.390625 -2.53125 L 8.5625 -2.5625 L 8.5625 -10.703125 L 9.796875 -10.703125 L 9.796875 0 L 8.46875 0 L 3.03125 -8.75 L 2.84375 -8.71875 Z M 2.84375 0 "/></g></g><g transform="translate(202.260692, 215.624986)"><g><path d="M 7.703125 -3.765625 L 2.140625 -3.765625 C 2.179688 -2.785156 2.421875 -2.066406 2.859375 -1.609375 C 3.296875 -1.148438 3.894531 -0.921875 4.65625 -0.921875 C 5.226562 -0.921875 5.6875 -1.019531 6.03125 -1.21875 C 6.382812 -1.425781 6.664062 -1.75 6.875 -2.1875 L 7.03125 -2.1875 L 7.796875 -1.734375 C 7.566406 -1.140625 7.191406 -0.675781 6.671875 -0.34375 C 6.160156 -0.0078125 5.488281 0.15625 4.65625 0.15625 C 3.875 0.15625 3.203125 0.00390625 2.640625 -0.296875 C 2.078125 -0.609375 1.644531 -1.078125 1.34375 -1.703125 C 1.039062 -2.328125 0.890625 -3.101562 0.890625 -4.03125 C 0.890625 -4.945312 1.046875 -5.71875 1.359375 -6.34375 C 1.679688 -6.976562 2.117188 -7.453125 2.671875 -7.765625 C 3.234375 -8.078125 3.867188 -8.234375 4.578125 -8.234375 C 5.609375 -8.234375 6.414062 -7.941406 7 -7.359375 C 7.582031 -6.773438 7.875 -5.910156 7.875 -4.765625 C 7.875 -4.316406 7.867188 -4.015625 7.859375 -3.859375 Z M 6.703125 -4.765625 C 6.679688 -5.617188 6.488281 -6.238281 6.125 -6.625 C 5.769531 -7.019531 5.253906 -7.21875 4.578125 -7.21875 C 3.867188 -7.21875 3.3125 -7.019531 2.90625 -6.625 C 2.507812 -6.238281 2.265625 -5.617188 2.171875 -4.765625 Z M 6.703125 -4.765625 "/></g></g><g transform="translate(210.873973, 215.624986)"><g><path d="M 4 0 L 2.5 0 L 0.515625 -8.078125 L 1.703125 -8.078125 L 3.234375 -1.390625 L 3.390625 -1.390625 L 5.265625 -8.078125 L 6.515625 -8.078125 L 8.453125 -1.390625 L 8.609375 -1.390625 L 10.109375 -8.078125 L 11.25 -8.078125 L 9.296875 0 L 7.78125 0 L 5.9375 -6.265625 L 5.78125 -6.265625 Z M 4 0 "/></g></g><g transform="translate(222.651316, 215.624986)"><g/></g><g transform="translate(226.328073, 215.624986)"><g><path d="M 4.6875 0.15625 C 4.007812 0.15625 3.398438 0.0664062 2.859375 -0.109375 C 2.328125 -0.296875 1.882812 -0.539062 1.53125 -0.84375 C 1.175781 -1.144531 0.910156 -1.472656 0.734375 -1.828125 L 1.421875 -2.65625 L 1.609375 -2.65625 C 2.265625 -1.539062 3.289062 -0.984375 4.6875 -0.984375 C 5.488281 -0.984375 6.082031 -1.148438 6.46875 -1.484375 C 6.863281 -1.828125 7.0625 -2.296875 7.0625 -2.890625 C 7.0625 -3.242188 7 -3.539062 6.875 -3.78125 C 6.75 -4.03125 6.535156 -4.238281 6.234375 -4.40625 C 5.929688 -4.582031 5.523438 -4.734375 5.015625 -4.859375 L 3.765625 -5.171875 C 2.828125 -5.398438 2.140625 -5.757812 1.703125 -6.25 C 1.265625 -6.738281 1.046875 -7.359375 1.046875 -8.109375 C 1.046875 -8.640625 1.179688 -9.113281 1.453125 -9.53125 C 1.722656 -9.945312 2.117188 -10.269531 2.640625 -10.5 C 3.171875 -10.738281 3.804688 -10.859375 4.546875 -10.859375 C 5.347656 -10.859375 6.023438 -10.742188 6.578125 -10.515625 C 7.128906 -10.296875 7.570312 -9.957031 7.90625 -9.5 L 7.296875 -8.671875 L 7.109375 -8.671875 C 6.804688 -9.046875 6.441406 -9.320312 6.015625 -9.5 C 5.597656 -9.675781 5.109375 -9.765625 4.546875 -9.765625 C 3.796875 -9.765625 3.234375 -9.617188 2.859375 -9.328125 C 2.484375 -9.046875 2.296875 -8.648438 2.296875 -8.140625 C 2.296875 -7.648438 2.429688 -7.265625 2.703125 -6.984375 C 2.984375 -6.703125 3.453125 -6.484375 4.109375 -6.328125 L 5.390625 -6.015625 C 6.429688 -5.765625 7.1875 -5.382812 7.65625 -4.875 C 8.125 -4.375 8.359375 -3.734375 8.359375 -2.953125 C 8.359375 -2.347656 8.222656 -1.8125 7.953125 -1.34375 C 7.679688 -0.875 7.269531 -0.503906 6.71875 -0.234375 C 6.164062 0.0234375 5.488281 0.15625 4.6875 0.15625 Z M 4.6875 0.15625 "/></g></g><g transform="translate(235.505319, 215.624986)"><g><path d="M 4.640625 0.15625 C 3.921875 0.15625 3.28125 -0.00390625 2.71875 -0.328125 C 2.15625 -0.660156 1.707031 -1.140625 1.375 -1.765625 C 1.050781 -2.398438 0.890625 -3.15625 0.890625 -4.03125 C 0.890625 -4.914062 1.050781 -5.675781 1.375 -6.3125 C 1.707031 -6.945312 2.15625 -7.425781 2.71875 -7.75 C 3.28125 -8.070312 3.921875 -8.234375 4.640625 -8.234375 C 5.492188 -8.234375 6.171875 -8.070312 6.671875 -7.75 C 7.179688 -7.425781 7.546875 -6.992188 7.765625 -6.453125 L 6.953125 -5.875 L 6.8125 -5.875 C 6.59375 -6.320312 6.3125 -6.644531 5.96875 -6.84375 C 5.625 -7.050781 5.179688 -7.15625 4.640625 -7.15625 C 4.140625 -7.15625 3.703125 -7.035156 3.328125 -6.796875 C 2.953125 -6.566406 2.660156 -6.21875 2.453125 -5.75 C 2.242188 -5.28125 2.140625 -4.707031 2.140625 -4.03125 C 2.140625 -3.363281 2.242188 -2.796875 2.453125 -2.328125 C 2.660156 -1.859375 2.953125 -1.503906 3.328125 -1.265625 C 3.703125 -1.035156 4.140625 -0.921875 4.640625 -0.921875 C 5.203125 -0.921875 5.664062 -1.046875 6.03125 -1.296875 C 6.394531 -1.546875 6.6875 -1.945312 6.90625 -2.5 L 7.046875 -2.5 L 7.84375 -2.03125 C 7.625 -1.351562 7.242188 -0.816406 6.703125 -0.421875 C 6.171875 -0.0351562 5.484375 0.15625 4.640625 0.15625 Z M 4.640625 0.15625 "/></g></g><g transform="translate(243.832955, 215.624986)"><g><path d="M 1.40625 0 L 1.40625 -11.328125 L 2.59375 -11.328125 L 2.59375 -6.921875 L 2.75 -6.90625 C 3.332031 -7.789062 4.164062 -8.234375 5.25 -8.234375 C 6.21875 -8.234375 6.921875 -7.984375 7.359375 -7.484375 C 7.796875 -6.992188 8.015625 -6.234375 8.015625 -5.203125 L 8.015625 0 L 6.828125 0 L 6.828125 -5.171875 C 6.828125 -5.660156 6.765625 -6.050781 6.640625 -6.34375 C 6.515625 -6.644531 6.320312 -6.859375 6.0625 -6.984375 C 5.800781 -7.117188 5.457031 -7.1875 5.03125 -7.1875 C 4.300781 -7.1875 3.710938 -6.945312 3.265625 -6.46875 C 2.816406 -6 2.59375 -5.222656 2.59375 -4.140625 L 2.59375 0 Z M 1.40625 0 "/></g></g><g transform="translate(253.134712, 215.624986)"><g><path d="M 4.640625 0.15625 C 3.878906 0.15625 3.210938 -0.00390625 2.640625 -0.328125 C 2.078125 -0.648438 1.644531 -1.125 1.34375 -1.75 C 1.039062 -2.382812 0.890625 -3.144531 0.890625 -4.03125 C 0.890625 -4.925781 1.039062 -5.6875 1.34375 -6.3125 C 1.644531 -6.945312 2.078125 -7.425781 2.640625 -7.75 C 3.210938 -8.070312 3.878906 -8.234375 4.640625 -8.234375 C 5.398438 -8.234375 6.0625 -8.070312 6.625 -7.75 C 7.1875 -7.425781 7.617188 -6.945312 7.921875 -6.3125 C 8.234375 -5.6875 8.390625 -4.925781 8.390625 -4.03125 C 8.390625 -3.144531 8.234375 -2.382812 7.921875 -1.75 C 7.617188 -1.125 7.1875 -0.648438 6.625 -0.328125 C 6.0625 -0.00390625 5.398438 0.15625 4.640625 0.15625 Z M 4.640625 -0.921875 C 5.441406 -0.921875 6.054688 -1.171875 6.484375 -1.671875 C 6.910156 -2.179688 7.125 -2.96875 7.125 -4.03125 C 7.125 -5.101562 6.910156 -5.890625 6.484375 -6.390625 C 6.054688 -6.898438 5.441406 -7.15625 4.640625 -7.15625 C 3.828125 -7.15625 3.207031 -6.898438 2.78125 -6.390625 C 2.351562 -5.878906 2.140625 -5.09375 2.140625 -4.03125 C 2.140625 -2.96875 2.351562 -2.179688 2.78125 -1.671875 C 3.207031 -1.171875 3.828125 -0.921875 4.640625 -0.921875 Z M 4.640625 -0.921875 "/></g></g><g transform="translate(262.407173, 215.624986)"><g><path d="M 4.640625 0.15625 C 3.878906 0.15625 3.210938 -0.00390625 2.640625 -0.328125 C 2.078125 -0.648438 1.644531 -1.125 1.34375 -1.75 C 1.039062 -2.382812 0.890625 -3.144531 0.890625 -4.03125 C 0.890625 -4.925781 1.039062 -5.6875 1.34375 -6.3125 C 1.644531 -6.945312 2.078125 -7.425781 2.640625 -7.75 C 3.210938 -8.070312 3.878906 -8.234375 4.640625 -8.234375 C 5.398438 -8.234375 6.0625 -8.070312 6.625 -7.75 C 7.1875 -7.425781 7.617188 -6.945312 7.921875 -6.3125 C 8.234375 -5.6875 8.390625 -4.925781 8.390625 -4.03125 C 8.390625 -3.144531 8.234375 -2.382812 7.921875 -1.75 C 7.617188 -1.125 7.1875 -0.648438 6.625 -0.328125 C 6.0625 -0.00390625 5.398438 0.15625 4.640625 0.15625 Z M 4.640625 -0.921875 C 5.441406 -0.921875 6.054688 -1.171875 6.484375 -1.671875 C 6.910156 -2.179688 7.125 -2.96875 7.125 -4.03125 C 7.125 -5.101562 6.910156 -5.890625 6.484375 -6.390625 C 6.054688 -6.898438 5.441406 -7.15625 4.640625 -7.15625 C 3.828125 -7.15625 3.207031 -6.898438 2.78125 -6.390625 C 2.351562 -5.878906 2.140625 -5.09375 2.140625 -4.03125 C 2.140625 -2.96875 2.351562 -2.179688 2.78125 -1.671875 C 3.207031 -1.171875 3.828125 -0.921875 4.640625 -0.921875 Z M 4.640625 -0.921875 "/></g></g><g transform="translate(271.679633, 215.624986)"><g><path d="M 3.21875 0.15625 C 2.644531 0.15625 2.191406 -0.00390625 1.859375 -0.328125 C 1.535156 -0.660156 1.375 -1.144531 1.375 -1.78125 L 1.375 -11.328125 L 2.578125 -11.328125 L 2.578125 -1.875 C 2.578125 -1.53125 2.640625 -1.285156 2.765625 -1.140625 C 2.890625 -0.992188 3.09375 -0.921875 3.375 -0.921875 C 3.539062 -0.921875 3.707031 -0.945312 3.875 -1 L 3.984375 -0.96875 L 4.109375 -0.03125 C 4.023438 0.03125 3.898438 0.078125 3.734375 0.109375 C 3.578125 0.140625 3.40625 0.15625 3.21875 0.15625 Z M 3.21875 0.15625 "/></g></g><g transform="translate(276.074164, 215.624986)"><g/></g><g transform="translate(279.750922, 215.624986)"><g><path d="M 5.828125 0 L 4.171875 0 L 0.46875 -10.703125 L 1.796875 -10.703125 L 4.9375 -1.578125 L 5.125 -1.578125 L 8.234375 -10.703125 L 9.546875 -10.703125 Z M 5.828125 0 "/></g></g><g transform="translate(289.755804, 215.624986)"><g><path d="M 2 -9.640625 C 1.75 -9.640625 1.546875 -9.71875 1.390625 -9.875 C 1.234375 -10.03125 1.15625 -10.234375 1.15625 -10.484375 C 1.15625 -10.722656 1.234375 -10.921875 1.390625 -11.078125 C 1.546875 -11.242188 1.75 -11.328125 2 -11.328125 C 2.257812 -11.328125 2.46875 -11.242188 2.625 -11.078125 C 2.78125 -10.921875 2.859375 -10.722656 2.859375 -10.484375 C 2.859375 -10.234375 2.78125 -10.03125 2.625 -9.875 C 2.46875 -9.71875 2.257812 -9.640625 2 -9.640625 Z M 1.40625 0 L 1.40625 -8.078125 L 2.59375 -8.078125 L 2.59375 0 Z M 1.40625 0 "/></g></g><g transform="translate(293.762151, 215.624986)"><g><path d="M 5.375 0.15625 C 4.769531 0.15625 4.242188 0.0390625 3.796875 -0.1875 C 3.359375 -0.425781 3.007812 -0.734375 2.75 -1.109375 L 2.59375 -1.078125 L 2.59375 0 L 1.40625 0 L 1.40625 -11.328125 L 2.59375 -11.328125 L 2.59375 -6.875 L 2.75 -6.84375 C 3.363281 -7.769531 4.257812 -8.234375 5.4375 -8.234375 C 6.101562 -8.234375 6.679688 -8.078125 7.171875 -7.765625 C 7.671875 -7.460938 8.054688 -6.992188 8.328125 -6.359375 C 8.609375 -5.734375 8.75 -4.957031 8.75 -4.03125 C 8.75 -3.113281 8.601562 -2.34375 8.3125 -1.71875 C 8.019531 -1.09375 7.617188 -0.625 7.109375 -0.3125 C 6.609375 0 6.03125 0.15625 5.375 0.15625 Z M 5.078125 -0.921875 C 6.691406 -0.921875 7.5 -1.957031 7.5 -4.03125 C 7.5 -5.113281 7.285156 -5.90625 6.859375 -6.40625 C 6.441406 -6.90625 5.847656 -7.15625 5.078125 -7.15625 C 4.328125 -7.15625 3.722656 -6.898438 3.265625 -6.390625 C 2.816406 -5.878906 2.59375 -5.09375 2.59375 -4.03125 C 2.59375 -2.988281 2.816406 -2.207031 3.265625 -1.6875 C 3.722656 -1.175781 4.328125 -0.921875 5.078125 -0.921875 Z M 5.078125 -0.921875 "/></g></g><g transform="translate(303.400822, 215.624986)"><g><path d="M 7.703125 -3.765625 L 2.140625 -3.765625 C 2.179688 -2.785156 2.421875 -2.066406 2.859375 -1.609375 C 3.296875 -1.148438 3.894531 -0.921875 4.65625 -0.921875 C 5.226562 -0.921875 5.6875 -1.019531 6.03125 -1.21875 C 6.382812 -1.425781 6.664062 -1.75 6.875 -2.1875 L 7.03125 -2.1875 L 7.796875 -1.734375 C 7.566406 -1.140625 7.191406 -0.675781 6.671875 -0.34375 C 6.160156 -0.0078125 5.488281 0.15625 4.65625 0.15625 C 3.875 0.15625 3.203125 0.00390625 2.640625 -0.296875 C 2.078125 -0.609375 1.644531 -1.078125 1.34375 -1.703125 C 1.039062 -2.328125 0.890625 -3.101562 0.890625 -4.03125 C 0.890625 -4.945312 1.046875 -5.71875 1.359375 -6.34375 C 1.679688 -6.976562 2.117188 -7.453125 2.671875 -7.765625 C 3.234375 -8.078125 3.867188 -8.234375 4.578125 -8.234375 C 5.609375 -8.234375 6.414062 -7.941406 7 -7.359375 C 7.582031 -6.773438 7.875 -5.910156 7.875 -4.765625 C 7.875 -4.316406 7.867188 -4.015625 7.859375 -3.859375 Z M 6.703125 -4.765625 C 6.679688 -5.617188 6.488281 -6.238281 6.125 -6.625 C 5.769531 -7.019531 5.253906 -7.21875 4.578125 -7.21875 C 3.867188 -7.21875 3.3125 -7.019531 2.90625 -6.625 C 2.507812 -6.238281 2.265625 -5.617188 2.171875 -4.765625 Z M 6.703125 -4.765625 "/></g></g><g transform="translate(312.014103, 215.624986)"><g><path d="M 3.6875 0.15625 C 3.175781 0.15625 2.703125 0.0859375 2.265625 -0.046875 C 1.835938 -0.179688 1.472656 -0.363281 1.171875 -0.59375 C 0.878906 -0.832031 0.671875 -1.097656 0.546875 -1.390625 L 1.25 -2.125 L 1.40625 -2.125 C 1.664062 -1.726562 1.984375 -1.425781 2.359375 -1.21875 C 2.734375 -1.019531 3.175781 -0.921875 3.6875 -0.921875 C 4.28125 -0.921875 4.734375 -1.035156 5.046875 -1.265625 C 5.359375 -1.492188 5.515625 -1.816406 5.515625 -2.234375 C 5.515625 -2.546875 5.414062 -2.804688 5.21875 -3.015625 C 5.03125 -3.222656 4.726562 -3.378906 4.3125 -3.484375 L 2.953125 -3.828125 C 2.222656 -4.003906 1.691406 -4.28125 1.359375 -4.65625 C 1.023438 -5.039062 0.859375 -5.515625 0.859375 -6.078125 C 0.859375 -6.515625 0.96875 -6.894531 1.1875 -7.21875 C 1.414062 -7.539062 1.738281 -7.789062 2.15625 -7.96875 C 2.582031 -8.144531 3.085938 -8.234375 3.671875 -8.234375 C 4.410156 -8.234375 4.992188 -8.128906 5.421875 -7.921875 C 5.847656 -7.710938 6.179688 -7.421875 6.421875 -7.046875 L 5.75 -6.390625 L 5.609375 -6.390625 C 5.347656 -6.691406 5.0625 -6.90625 4.75 -7.03125 C 4.445312 -7.164062 4.085938 -7.234375 3.671875 -7.234375 C 3.140625 -7.234375 2.726562 -7.140625 2.4375 -6.953125 C 2.15625 -6.765625 2.015625 -6.488281 2.015625 -6.125 C 2.015625 -5.789062 2.113281 -5.523438 2.3125 -5.328125 C 2.519531 -5.128906 2.875 -4.96875 3.375 -4.84375 L 4.703125 -4.53125 C 5.410156 -4.363281 5.921875 -4.085938 6.234375 -3.703125 C 6.546875 -3.316406 6.703125 -2.832031 6.703125 -2.25 C 6.703125 -1.769531 6.585938 -1.347656 6.359375 -0.984375 C 6.140625 -0.628906 5.800781 -0.347656 5.34375 -0.140625 C 4.894531 0.0546875 4.34375 0.15625 3.6875 0.15625 Z M 3.6875 0.15625 "/></g></g></g></svg>